<svg xmlns="http://www.w3.org/2000/svg" viewBox="0 0 238.31 50" width="238.31" height="50"><defs><style>.cls-1{fill:#fff;}</style></defs><title>cmi</title><g id="Layer_1" data-name="Layer 1"><path class="cls-1" d="M103.09,48.46V1.54a.69.69,0,0,0-.77-.77H95c-.54,0-.77.23-.77.77V48.46c0,.54.23.77.77.77h7.3C102.86,49.23,103.09,49,103.09,48.46Zm-23.85,0V1.54c0-.54-.23-.77-.77-.77H71.85a1.85,1.85,0,0,0-.69.46L59.93,31.69,48.7,1.23A1.85,1.85,0,0,0,48,.77H41.39c-.54,0-.77.23-.77.77V48.46c0,.54.23.77.77.77h7.16c.53,0,.77-.23.77-.77l-.7-30,8.7,23.69a.74.74,0,0,0,.69.47h3.92c.23,0,.46-.24.69-.47l8.69-23.69-.69,30c0,.54.23.77.77.77h7.08C79,49.23,79.24,49,79.24,48.46Zm-48-8.31-6.69-3.3-.38-.08c-.39,0-.7.54-1.16,1.46-1.31,2.46-2.69,3.69-4.92,3.69H14.31a5.51,5.51,0,0,1-5.54-5.54V13.62a5.51,5.51,0,0,1,5.54-5.54h3.77c2.23,0,3.69,1.3,5,3.69.46.84.61,1.31,1.08,1.31l.38-.08,6.69-3.31c.31-.15.46-.31.46-.61,0-.85-1.84-4.31-4.92-6.54A14,14,0,0,0,18.08,0H14.31C5.69,0,0,5.46,0,13.62V36.38C0,44.54,5.62,50,14.31,50h3.77c4.31,0,7.61-1.15,9.92-3.54,2.62-2.69,3.69-4.92,3.69-5.69C31.69,40.46,31.54,40.31,31.23,40.15Z"/><path class="cls-1" d="M238.27,18.81a.51.51,0,0,0,0-.14c0-.1-.08-.16-.22-.16h-2.21l-.18.12-1.9,3.93a.19.19,0,0,1-.36,0l-1.91-3.93-.18-.12h-2.23c-.14,0-.22.06-.22.16a.51.51,0,0,0,0,.14l3.51,6.58V31c0,.14.06.2.2.2h1.91c.14,0,.2-.06.2-.2V25.39Zm-14.22-.5h-1.32A3.44,3.44,0,0,0,219,21.86V27.8a3.43,3.43,0,0,0,3.73,3.55h1a3.45,3.45,0,0,0,3.73-3.55V24.75c0-.14-.06-.2-.2-.2h-4.19c-.14,0-.2.06-.2.2v1.7c0,.15.06.21.2.21h1.88a.18.18,0,0,1,.2.2v.94a1.4,1.4,0,0,1-1.42,1.44h-1a1.44,1.44,0,0,1-1.45-1.44V21.86a1.44,1.44,0,0,1,1.45-1.44h1.32c.58,0,1,.34,1.3,1,.12.22.16.34.28.34l.1,0,1.75-.86a.19.19,0,0,0,.12-.16A3.32,3.32,0,0,0,226.33,19,3.8,3.8,0,0,0,224.05,18.31ZM214,27.8a1.4,1.4,0,0,1-1.42,1.44h-1a1.43,1.43,0,0,1-1.44-1.44V21.86a1.43,1.43,0,0,1,1.44-1.44h1A1.4,1.4,0,0,1,214,21.86Zm2.31,0V21.86a3.45,3.45,0,0,0-3.73-3.55h-1a3.45,3.45,0,0,0-3.73,3.55V27.8a3.44,3.44,0,0,0,3.73,3.55h1A3.45,3.45,0,0,0,216.27,27.8ZM205.88,31V29.24a.18.18,0,0,0-.2-.2H200.9c-.14,0-.2-.06-.2-.2V18.71a.18.18,0,0,0-.2-.2h-1.9c-.14,0-.2.06-.2.2V31c0,.14.06.2.2.2h7.08C205.82,31.15,205.88,31.09,205.88,31Zm-12.8-3.15a1.4,1.4,0,0,1-1.42,1.44h-1a1.43,1.43,0,0,1-1.44-1.44V21.86a1.43,1.43,0,0,1,1.44-1.44h1a1.4,1.4,0,0,1,1.42,1.44Zm2.31,0V21.86a3.45,3.45,0,0,0-3.73-3.55h-1a3.45,3.45,0,0,0-3.73,3.55V27.8a3.44,3.44,0,0,0,3.73,3.55h1A3.45,3.45,0,0,0,195.39,27.8ZM183.94,31V18.71a.19.19,0,0,0-.21-.2h-1.9c-.14,0-.2.06-.2.2V31c0,.14.06.2.2.2h1.9C183.88,31.15,183.94,31.09,183.94,31Zm-7.51-3.35A1.43,1.43,0,0,1,175,29h-2.21c-.14,0-.2-.06-.2-.2V26c0-.14.06-.2.2-.2H175a1.41,1.41,0,0,1,1.44,1.43Zm0-5.36A1.45,1.45,0,0,1,175,23.69h-2.21c-.14,0-.2-.06-.2-.2V20.82c0-.14.06-.2.2-.2H175a1.46,1.46,0,0,1,1.44,1.44Zm2.29,5.22v-.3a2.86,2.86,0,0,0-.48-1.51,10.14,10.14,0,0,1-.66-.9,7.63,7.63,0,0,1,.7-.94,2.4,2.4,0,0,0,.44-1.37v-.2A3.48,3.48,0,0,0,175,18.51h-4.51c-.14,0-.2.06-.2.2V31c0,.14.06.2.2.2H175A3.45,3.45,0,0,0,178.72,27.46ZM165,27.8a1.4,1.4,0,0,1-1.42,1.44h-1a1.43,1.43,0,0,1-1.44-1.44V21.86a1.43,1.43,0,0,1,1.44-1.44h1A1.4,1.4,0,0,1,165,21.86Zm2.31,0V21.86a3.45,3.45,0,0,0-3.73-3.55h-1a3.45,3.45,0,0,0-3.73,3.55V27.8a3.44,3.44,0,0,0,3.73,3.55h1A3.45,3.45,0,0,0,167.27,27.8Zm-13.18-5.56a1.45,1.45,0,0,1-1.44,1.45h-2.21c-.14,0-.2-.06-.2-.2V20.82c0-.14.06-.2.2-.2h2.21a1.46,1.46,0,0,1,1.44,1.44Zm2.49,8.65-1.91-5.52v0c0-.18.46-.42.82-.76a3.27,3.27,0,0,0,.89-2.15v-.2a3.48,3.48,0,0,0-3.73-3.73h-4.52c-.14,0-.2.06-.2.2V31c0,.14.06.2.2.2H150c.14,0,.2-.06.2-.2V26c0-.14.06-.2.2-.2h1.78l.17.12,1.76,5.1c.06.1.12.14.18.14h2.07c.14,0,.2-.06.2-.16Zm-11.09-2.11-1.75-.86-.1,0c-.1,0-.18.14-.3.38-.34.64-.7,1-1.28,1h-1a1.43,1.43,0,0,1-1.44-1.44V21.86a1.43,1.43,0,0,1,1.44-1.44h1c.58,0,1,.34,1.3,1,.12.22.16.34.28.34l.1,0,1.75-.86c.08,0,.12-.08.12-.16A3.5,3.5,0,0,0,144.32,19a3.64,3.64,0,0,0-2.26-.66h-1a3.45,3.45,0,0,0-3.73,3.55V27.8a3.44,3.44,0,0,0,3.73,3.55h1a3.42,3.42,0,0,0,2.58-.92,3.27,3.27,0,0,0,1-1.49C145.61,28.86,145.57,28.82,145.49,28.78ZM134.33,31V18.71a.18.18,0,0,0-.2-.2h-1.9c-.14,0-.2.06-.2.2V31c0,.14.06.2.2.2h1.9C134.27,31.15,134.33,31.09,134.33,31Zm-5.61,0V18.71c0-.14-.06-.2-.2-.2h-1.73a.47.47,0,0,0-.18.12l-2.93,8-2.92-7.95a.47.47,0,0,0-.18-.12h-1.73c-.14,0-.2.06-.2.2V31c0,.14.06.2.2.2h1.87c.14,0,.2-.06.2-.2l-.18-7.82L123,29.3a.19.19,0,0,0,.18.12h1c.07,0,.13-.06.19-.12l2.26-6.17L126.47,31c0,.14.06.2.2.2h1.85C128.66,31.15,128.72,31.09,128.72,31Z"/><path class="cls-1" d="M189.19,13.4V11.69a.18.18,0,0,0-.2-.2h-4.77c-.14,0-.2-.06-.2-.2V1.16a.18.18,0,0,0-.2-.2h-1.91c-.14,0-.2.06-.2.2V13.4c0,.14.06.2.2.2H189C189.13,13.6,189.19,13.54,189.19,13.4Zm-13-4.54,0,.08c0,.13-.08.19-.22.19h-1.46c-.14,0-.22-.06-.22-.19l0-.08L175,6.22c0-.12.1-.48.24-1.11h.06c.12.63.2,1,.22,1.11Zm3.73,4.48L176.17,1.1A.19.19,0,0,0,176,1h-1.44a.18.18,0,0,0-.2.14L170.6,13.34l0,.08c0,.12.08.18.22.18h2a.18.18,0,0,0,.2-.14l.61-2.11c0-.1.08-.12.2-.12h2.86c.12,0,.19,0,.2.12l.61,2.11c0,.1.08.14.2.14h2c.14,0,.22-.06.22-.18Zm-10.27-2.11-1.74-.86-.1,0c-.1,0-.18.14-.3.38-.34.64-.7,1-1.29,1h-1a1.43,1.43,0,0,1-1.44-1.44V4.31a1.43,1.43,0,0,1,1.44-1.44h1c.59,0,1,.34,1.31,1,.12.22.16.34.28.34l.1,0,1.74-.86c.08,0,.12-.08.12-.16a3.45,3.45,0,0,0-1.28-1.71A3.65,3.65,0,0,0,166.2.76h-1a3.45,3.45,0,0,0-3.73,3.55v5.94a3.44,3.44,0,0,0,3.73,3.55h1a3.43,3.43,0,0,0,2.59-.92,3.21,3.21,0,0,0,1-1.49C169.75,11.31,169.71,11.27,169.63,11.23ZM158.48,13.4V1.16a.18.18,0,0,0-.2-.2h-1.9c-.14,0-.2.06-.2.2V13.4c0,.14.06.2.2.2h1.9C158.42,13.6,158.48,13.54,158.48,13.4Zm-5.61,0V1.16a.18.18,0,0,0-.2-.2h-1.85c-.14,0-.2.06-.2.2l.08,8.05-4.09-8.15-.18-.1h-1.69c-.14,0-.2.06-.2.2V13.4c0,.14.06.2.2.2h1.87c.14,0,.2-.06.2-.2l-.1-8,4.11,8.06.18.1h1.67C152.81,13.6,152.87,13.54,152.87,13.4Zm-11.62,0V1.16a.18.18,0,0,0-.2-.2h-1.9c-.14,0-.2.06-.2.2V13.4c0,.14.06.2.2.2h1.9C141.19,13.6,141.25,13.54,141.25,13.4Zm-4.53,0V11.69a.18.18,0,0,0-.2-.2h-4.77c-.14,0-.2-.06-.2-.2V1.16a.18.18,0,0,0-.2-.2h-1.91c-.14,0-.2.06-.2.2V13.4c0,.14.06.2.2.2h7.08C136.66,13.6,136.72,13.54,136.72,13.4Zm-9.93-2.17-1.74-.86-.1,0c-.1,0-.18.14-.3.38-.34.64-.71,1-1.29,1h-1a1.43,1.43,0,0,1-1.44-1.44V4.31a1.43,1.43,0,0,1,1.44-1.44h1a1.48,1.48,0,0,1,1.31,1c.12.22.16.34.28.34l.1,0,1.74-.86c.08,0,.12-.08.12-.16a3.45,3.45,0,0,0-1.28-1.71,3.65,3.65,0,0,0-2.27-.66h-1a3.44,3.44,0,0,0-3.73,3.55v5.94a3.43,3.43,0,0,0,3.73,3.55h1a3.43,3.43,0,0,0,2.59-.92,3.21,3.21,0,0,0,1-1.49C126.91,11.31,126.87,11.27,126.79,11.23Z"/><path class="cls-1" d="M238.21,49V36.77a.18.18,0,0,0-.2-.21h-1.85c-.14,0-.2.06-.2.21l.08,8L232,36.67l-.18-.11h-1.68c-.14,0-.2.06-.2.21V49c0,.14.06.2.2.2H232c.14,0,.2-.06.2-.2l-.1-8,4.11,8.06.18.1H238C238.15,49.2,238.21,49.14,238.21,49Zm-13.64-3.15a1.4,1.4,0,0,1-1.42,1.44h-1a1.43,1.43,0,0,1-1.44-1.44V39.91a1.43,1.43,0,0,1,1.44-1.44h1a1.4,1.4,0,0,1,1.42,1.44Zm2.31,0V39.91a3.45,3.45,0,0,0-3.73-3.55h-1a3.45,3.45,0,0,0-3.73,3.55v5.94a3.43,3.43,0,0,0,3.73,3.55h1A3.44,3.44,0,0,0,226.88,45.85ZM215.42,49V36.77a.18.18,0,0,0-.2-.21h-1.9c-.14,0-.2.06-.2.21V49c0,.14.06.2.2.2h1.9C215.36,49.2,215.42,49.14,215.42,49Zm-4.55-10.53v-1.7a.18.18,0,0,0-.2-.21h-7.06c-.14,0-.2.06-.2.21v1.7c0,.14.06.2.2.2h2.19c.14,0,.2.06.2.2V49c0,.14.06.2.2.2h1.88c.14,0,.2-.06.2-.2V38.87c0-.14.06-.2.21-.2h2.18C210.81,38.67,210.87,38.61,210.87,38.47ZM202,46.83,200.26,46l-.1,0c-.1,0-.18.14-.3.38-.34.64-.7,1-1.28,1h-1a1.43,1.43,0,0,1-1.44-1.44V39.91a1.43,1.43,0,0,1,1.44-1.44h1c.58,0,1,.34,1.3,1,.12.22.16.34.28.34l.1,0,1.75-.86c.08,0,.12-.08.12-.16a3.44,3.44,0,0,0-1.29-1.7,3.59,3.59,0,0,0-2.26-.67h-1a3.45,3.45,0,0,0-3.73,3.55v5.94a3.43,3.43,0,0,0,3.73,3.55h1a3.42,3.42,0,0,0,2.58-.92,3.18,3.18,0,0,0,1-1.49C202.13,46.91,202.09,46.87,202,46.83ZM191.44,49V47.29a.18.18,0,0,0-.2-.2h-4.78c-.14,0-.2-.06-.2-.2V44.05c0-.15.06-.21.2-.21h3.91c.14,0,.2-.06.2-.2v-1.7c0-.14-.06-.2-.2-.2h-3.91c-.14,0-.2-.06-.2-.2V38.87c0-.14.06-.2.2-.2h4.78c.14,0,.2-.06.2-.2v-1.7a.18.18,0,0,0-.2-.21h-7.08c-.14,0-.2.06-.2.21V49c0,.14.06.2.2.2h7.08C191.38,49.2,191.44,49.14,191.44,49Zm-9.71-10.53v-1.7a.18.18,0,0,0-.2-.21h-7.08c-.14,0-.2.06-.2.21V49c0,.14.06.2.2.2h1.9c.14,0,.2-.06.2-.2v-5c0-.15.06-.21.21-.21h3.91c.14,0,.2-.06.2-.2v-1.7c0-.14-.06-.2-.2-.2h-3.91c-.15,0-.21-.06-.21-.2V38.87c0-.14.06-.2.21-.2h4.77C181.67,38.67,181.73,38.61,181.73,38.47ZM170.94,49V36.77a.18.18,0,0,0-.2-.21h-1.85c-.14,0-.2.06-.2.21l.08,8-4.09-8.14-.18-.11h-1.68c-.14,0-.2.06-.2.21V49c0,.14.06.2.2.2h1.86c.14,0,.2-.06.2-.2l-.1-8,4.11,8.06.18.1h1.67C170.88,49.2,170.94,49.14,170.94,49Zm-11.61,0V36.77a.19.19,0,0,0-.21-.21h-1.9c-.14,0-.2.06-.2.21V49c0,.14.06.2.2.2h1.9C159.27,49.2,159.33,49.14,159.33,49Zm-11.76-3.35a1.43,1.43,0,0,1-1.44,1.44h-2.21c-.14,0-.2-.06-.2-.2v-8c0-.14.06-.2.2-.2h2.21a1.46,1.46,0,0,1,1.44,1.44Zm2.29-.18V40.29a3.48,3.48,0,0,0-3.73-3.73h-4.51c-.15,0-.2.06-.2.21V49c0,.14.05.2.2.2h4.51A3.48,3.48,0,0,0,149.86,45.47ZM138.1,49V36.77a.18.18,0,0,0-.2-.21h-1.84c-.14,0-.2.06-.2.21l.08,8-4.09-8.14-.18-.11H130c-.14,0-.2.06-.2.21V49c0,.14.06.2.2.2h1.87c.14,0,.2-.06.2-.2l-.1-8,4.11,8.06.18.1h1.66C138,49.2,138.1,49.14,138.1,49Zm-13.85-4.53,0,.08c0,.12-.08.18-.23.18h-1.46c-.14,0-.22-.06-.22-.18l0-.08.68-2.65c0-.12.1-.48.24-1.1h.06c.12.62.2,1,.22,1.1ZM128,48.94l-3.73-12.23c0-.1-.1-.15-.21-.15H122.6c-.12,0-.16,0-.2.15l-3.73,12.23,0,.08c0,.12.08.18.22.18h2a.18.18,0,0,0,.2-.14l.6-2.11c0-.1.08-.12.2-.12h2.87c.12,0,.18,0,.2.12l.6,2.11c0,.1.08.14.2.14h2c.15,0,.23-.06.23-.18Z"/></g></svg>